<svg id="visual" viewBox="0 0 900 600" width="900" height="600" xmlns="http://www.w3.org/2000/svg" xmlns:xlink="http://www.w3.org/1999/xlink" version="1.1"><rect x="0" y="0" width="900" height="600" fill="#001220"></rect><path d="M0 438L21.5 434.8C43 431.7 86 425.3 128.8 422.3C171.7 419.3 214.3 419.7 257.2 423.3C300 427 343 434 385.8 434C428.7 434 471.3 427 514.2 417C557 407 600 394 642.8 394.7C685.7 395.3 728.3 409.7 771.2 412.8C814 416 857 408 878.5 404L900 400L900 601L878.5 601C857 601 814 601 771.2 601C728.3 601 685.7 601 642.8 601C600 601 557 601 514.2 601C471.3 601 428.7 601 385.8 601C343 601 300 601 257.2 601C214.3 601 171.7 601 128.8 601C86 601 43 601 21.5 601L0 601Z" fill="#fa7268"></path><path d="M0 408L21.5 417.8C43 427.7 86 447.3 128.8 452.8C171.7 458.3 214.3 449.7 257.2 448.8C300 448 343 455 385.8 453.7C428.7 452.3 471.3 442.7 514.2 436.2C557 429.7 600 426.3 642.8 433.5C685.7 440.7 728.3 458.3 771.2 454.3C814 450.3 857 424.7 878.5 411.8L900 399L900 601L878.5 601C857 601 814 601 771.2 601C728.3 601 685.7 601 642.8 601C600 601 557 601 514.2 601C471.3 601 428.7 601 385.8 601C343 601 300 601 257.2 601C214.3 601 171.7 601 128.8 601C86 601 43 601 21.5 601L0 601Z" fill="#ef5f67"></path><path d="M0 505L21.5 497.3C43 489.7 86 474.3 128.8 468.7C171.7 463 214.3 467 257.2 475C300 483 343 495 385.8 500.5C428.7 506 471.3 505 514.2 496.5C557 488 600 472 642.8 470.7C685.7 469.3 728.3 482.7 771.2 486.7C814 490.7 857 485.3 878.5 482.7L900 480L900 601L878.5 601C857 601 814 601 771.2 601C728.3 601 685.7 601 642.8 601C600 601 557 601 514.2 601C471.3 601 428.7 601 385.8 601C343 601 300 601 257.2 601C214.3 601 171.7 601 128.8 601C86 601 43 601 21.5 601L0 601Z" fill="#e34c67"></path><path d="M0 507L21.5 507.2C43 507.3 86 507.7 128.8 509C171.7 510.3 214.3 512.7 257.2 513.8C300 515 343 515 385.8 513.3C428.7 511.7 471.3 508.3 514.2 510C557 511.7 600 518.3 642.8 515.8C685.7 513.3 728.3 501.7 771.2 504.5C814 507.3 857 524.7 878.5 533.3L900 542L900 601L878.5 601C857 601 814 601 771.2 601C728.3 601 685.7 601 642.8 601C600 601 557 601 514.2 601C471.3 601 428.7 601 385.8 601C343 601 300 601 257.2 601C214.3 601 171.7 601 128.8 601C86 601 43 601 21.5 601L0 601Z" fill="#d53867"></path><path d="M0 572L21.5 572C43 572 86 572 128.8 571.5C171.7 571 214.3 570 257.2 564.2C300 558.3 343 547.7 385.8 545.2C428.7 542.7 471.3 548.3 514.2 549.7C557 551 600 548 642.8 549.7C685.7 551.3 728.3 557.7 771.2 554.7C814 551.7 857 539.3 878.5 533.2L900 527L900 601L878.5 601C857 601 814 601 771.2 601C728.3 601 685.7 601 642.8 601C600 601 557 601 514.2 601C471.3 601 428.7 601 385.8 601C343 601 300 601 257.2 601C214.3 601 171.7 601 128.8 601C86 601 43 601 21.5 601L0 601Z" fill="#c62368"></path></svg>