<svg width="32" height="24" viewBox="0 0 32 24" fill="none" xmlns="http://www.w3.org/2000/svg">
<path fill-rule="evenodd" clip-rule="evenodd" d="M26.6551 1.98947C24.6482 1.06863 22.4961 0.390197 20.246 0.00162999C20.205 -0.00586923 20.1641 0.0128717 20.143 0.0503545C19.8662 0.542621 19.5596 1.18482 19.3449 1.68959C16.9248 1.32727 14.517 1.32727 12.1465 1.68959C11.9318 1.1736 11.6141 0.542621 11.3361 0.0503545C11.315 0.0141223 11.274 -0.00461862 11.233 0.00162999C8.98416 0.388955 6.8321 1.06739 4.82398 1.98947C4.8066 1.99696 4.7917 2.00947 4.78181 2.0257C0.699787 8.12415 -0.418449 14.0727 0.13012 19.9475C0.132602 19.9762 0.148736 20.0037 0.171077 20.0212C2.86428 21.999 5.4731 23.1998 8.03348 23.9956C8.07446 24.0081 8.11787 23.9931 8.14395 23.9594C8.74961 23.1323 9.2895 22.2602 9.7524 21.3431C9.77972 21.2894 9.75364 21.2257 9.69781 21.2044C8.84145 20.8796 8.02603 20.4835 7.24165 20.0337C7.17961 19.9975 7.17464 19.9087 7.23171 19.8663C7.39678 19.7426 7.56188 19.6139 7.7195 19.4839C7.74801 19.4602 7.78775 19.4552 7.82128 19.4702C12.9743 21.8229 18.5531 21.8229 23.6453 19.4702C23.6789 19.454 23.7186 19.459 23.7484 19.4827C23.906 19.6126 24.0711 19.7426 24.2374 19.8663C24.2945 19.9087 24.2907 19.9975 24.2287 20.0337C23.4443 20.4922 22.6289 20.8796 21.7713 21.2032C21.7155 21.2244 21.6906 21.2894 21.7179 21.3431C22.1908 22.2589 22.7307 23.131 23.3251 23.9582C23.35 23.9931 23.3946 24.0081 23.4356 23.9956C26.0084 23.1998 28.6172 21.999 31.3104 20.0212C31.334 20.0037 31.3489 19.9775 31.3514 19.9488C32.0079 13.1568 30.2518 7.25706 26.696 2.02694C26.6873 2.00947 26.6724 1.99696 26.6551 1.98947ZM10.5219 16.3704C8.97051 16.3704 7.69218 14.946 7.69218 13.1968C7.69218 11.4476 8.94571 10.0233 10.5219 10.0233C12.1105 10.0233 13.3765 11.4601 13.3516 13.1968C13.3516 14.946 12.0981 16.3704 10.5219 16.3704ZM18.1547 13.1968C18.1547 14.946 19.433 16.3704 20.9844 16.3704C22.5731 16.3704 23.8142 14.946 23.8142 13.1968C23.839 11.4601 22.5731 10.0233 20.9844 10.0233C19.4082 10.0233 18.1547 11.4476 18.1547 13.1968Z" fill="white"/>
</svg>
