<svg xmlns="http://www.w3.org/2000/svg" height="40" viewBox="0 96 960 960" width="40"><path d="M438.334 785h87.999V536.667h-87.999V785Zm41.643-305.667q21.523 0 36.106-14.344 14.583-14.345 14.583-35.55 0-22.905-14.533-37.172Q501.601 378 480.117 378q-22.617 0-36.7 14.162-14.083 14.161-14.083 36.566 0 21.839 14.559 36.222 14.56 14.383 36.084 14.383Zm.335 518q-88.197 0-164.854-33.013-76.657-33.014-133.724-90.179-57.067-57.166-90.067-133.667-33-76.5-33-164.673 0-88.253 33.013-164.96 33.014-76.706 90.075-133.642 57.061-56.935 133.61-90.067Q391.915 154 480.143 154q88.309 0 165.099 33.172 76.789 33.173 133.671 90.04 56.881 56.867 89.984 133.592Q902 487.529 902 575.78q0 88.289-33.145 164.935t-90.179 133.509q-57.035 56.863-133.641 89.986-76.607 33.123-164.723 33.123Z" fill="rgb(201, 204, 216)" /></svg>